<svg width="126" height="22" viewBox="0 0 126 22" fill="none" xmlns="http://www.w3.org/2000/svg">
<path opacity="0.7" d="M6.88867 21H2.55469L2.58203 17.8008H6.88867C7.96419 17.8008 8.87109 17.5592 9.60938 17.0762C10.3477 16.584 10.9036 15.8685 11.2773 14.9297C11.6602 13.9909 11.8516 12.8561 11.8516 11.5254V10.5547C11.8516 9.53385 11.7422 8.63607 11.5234 7.86133C11.3138 7.08659 10.9993 6.4349 10.5801 5.90625C10.1608 5.3776 9.64583 4.98112 9.03516 4.7168C8.42448 4.44336 7.72266 4.30664 6.92969 4.30664H2.47266V1.09375H6.92969C8.26042 1.09375 9.47721 1.32161 10.5801 1.77734C11.6921 2.22396 12.6536 2.86654 13.4648 3.70508C14.276 4.54362 14.9004 5.54622 15.3379 6.71289C15.7845 7.87044 16.0078 9.16016 16.0078 10.582V11.5254C16.0078 12.9382 15.7845 14.2279 15.3379 15.3945C14.9004 16.5612 14.276 17.5638 13.4648 18.4023C12.6628 19.2318 11.7012 19.8743 10.5801 20.3301C9.4681 20.7767 8.23763 21 6.88867 21ZM4.87891 1.09375V21H0.777344V1.09375H4.87891ZM18.1133 13.7539V13.4668C18.1133 12.3822 18.2682 11.3841 18.5781 10.4727C18.888 9.55208 19.3392 8.75456 19.9316 8.08008C20.5241 7.4056 21.2533 6.88151 22.1191 6.50781C22.985 6.125 23.9785 5.93359 25.0996 5.93359C26.2207 5.93359 27.2188 6.125 28.0938 6.50781C28.9688 6.88151 29.7025 7.4056 30.2949 8.08008C30.8965 8.75456 31.3522 9.55208 31.6621 10.4727C31.972 11.3841 32.127 12.3822 32.127 13.4668V13.7539C32.127 14.8294 31.972 15.8275 31.6621 16.748C31.3522 17.6595 30.8965 18.457 30.2949 19.1406C29.7025 19.8151 28.9733 20.3392 28.1074 20.7129C27.2415 21.0866 26.248 21.2734 25.127 21.2734C24.0059 21.2734 23.0078 21.0866 22.1328 20.7129C21.2669 20.3392 20.5332 19.8151 19.9316 19.1406C19.3392 18.457 18.888 17.6595 18.5781 16.748C18.2682 15.8275 18.1133 14.8294 18.1133 13.7539ZM22.0508 13.4668V13.7539C22.0508 14.3737 22.1055 14.9525 22.2148 15.4902C22.3242 16.028 22.4974 16.502 22.7344 16.9121C22.9805 17.3132 23.2995 17.6276 23.6914 17.8555C24.0833 18.0833 24.5618 18.1973 25.127 18.1973C25.6738 18.1973 26.1432 18.0833 26.5352 17.8555C26.9271 17.6276 27.2415 17.3132 27.4785 16.9121C27.7155 16.502 27.8887 16.028 27.998 15.4902C28.1165 14.9525 28.1758 14.3737 28.1758 13.7539V13.4668C28.1758 12.8652 28.1165 12.3001 27.998 11.7715C27.8887 11.2337 27.7109 10.7598 27.4648 10.3496C27.2279 9.93034 26.9134 9.60221 26.5215 9.36523C26.1296 9.12826 25.6556 9.00977 25.0996 9.00977C24.5436 9.00977 24.0697 9.12826 23.6777 9.36523C23.2949 9.60221 22.9805 9.93034 22.7344 10.3496C22.4974 10.7598 22.3242 11.2337 22.2148 11.7715C22.1055 12.3001 22.0508 12.8652 22.0508 13.4668ZM38.4023 9.36523V21H34.4648V6.20703H38.1562L38.4023 9.36523ZM37.8281 13.084H36.7617C36.7617 11.9902 36.903 11.0059 37.1855 10.1309C37.4681 9.24674 37.8646 8.49479 38.375 7.875C38.8854 7.24609 39.4915 6.76758 40.1934 6.43945C40.9043 6.10221 41.6973 5.93359 42.5723 5.93359C43.265 5.93359 43.8984 6.03385 44.4727 6.23438C45.0469 6.4349 45.5391 6.75391 45.9492 7.19141C46.3685 7.62891 46.6875 8.20768 46.9062 8.92773C47.1341 9.64779 47.248 10.5273 47.248 11.5664V21H43.2832V11.5527C43.2832 10.8965 43.1921 10.3861 43.0098 10.0215C42.8275 9.6569 42.5586 9.40169 42.2031 9.25586C41.8568 9.10091 41.4284 9.02344 40.918 9.02344C40.3893 9.02344 39.929 9.12826 39.5371 9.33789C39.1543 9.54753 38.8353 9.83919 38.5801 10.2129C38.334 10.5775 38.1471 11.0059 38.0195 11.498C37.8919 11.9902 37.8281 12.5189 37.8281 13.084ZM58.2266 17.6641V11.0742C58.2266 10.6003 58.1491 10.1947 57.9941 9.85742C57.8392 9.51107 57.5977 9.24219 57.2695 9.05078C56.9505 8.85938 56.5358 8.76367 56.0254 8.76367C55.5879 8.76367 55.2096 8.84115 54.8906 8.99609C54.5716 9.14193 54.3255 9.35612 54.1523 9.63867C53.9792 9.91211 53.8926 10.2357 53.8926 10.6094H49.9551C49.9551 9.98047 50.1009 9.38346 50.3926 8.81836C50.6842 8.25326 51.1081 7.75651 51.6641 7.32812C52.2201 6.89062 52.8809 6.54883 53.6465 6.30273C54.4212 6.05664 55.2871 5.93359 56.2441 5.93359C57.3926 5.93359 58.4134 6.125 59.3066 6.50781C60.1999 6.89062 60.9017 7.46484 61.4121 8.23047C61.9316 8.99609 62.1914 9.95312 62.1914 11.1016V17.4316C62.1914 18.2428 62.2415 18.9082 62.3418 19.4277C62.4421 19.9382 62.5879 20.3848 62.7793 20.7676V21H58.8008C58.6094 20.599 58.4635 20.0977 58.3633 19.4961C58.2721 18.8854 58.2266 18.2747 58.2266 17.6641ZM58.7461 11.9902L58.7734 14.2188H56.5723C56.0527 14.2188 55.6016 14.278 55.2188 14.3965C54.8359 14.515 54.5215 14.6836 54.2754 14.9023C54.0293 15.112 53.847 15.3581 53.7285 15.6406C53.6191 15.9232 53.5645 16.2331 53.5645 16.5703C53.5645 16.9076 53.6419 17.2129 53.7969 17.4863C53.9518 17.7507 54.1751 17.9603 54.4668 18.1152C54.7585 18.2611 55.1003 18.334 55.4922 18.334C56.0846 18.334 56.5996 18.2155 57.0371 17.9785C57.4746 17.7415 57.8118 17.4499 58.0488 17.1035C58.2949 16.7572 58.4225 16.429 58.4316 16.1191L59.4707 17.7871C59.3249 18.1608 59.1243 18.5482 58.8691 18.9492C58.623 19.3503 58.3086 19.7285 57.9258 20.084C57.543 20.4303 57.0827 20.7174 56.5449 20.9453C56.0072 21.1641 55.3691 21.2734 54.6309 21.2734C53.6921 21.2734 52.8398 21.0866 52.0742 20.7129C51.3177 20.3301 50.7161 19.806 50.2695 19.1406C49.832 18.4661 49.6133 17.7005 49.6133 16.8438C49.6133 16.069 49.7591 15.3809 50.0508 14.7793C50.3424 14.1777 50.7708 13.6719 51.3359 13.2617C51.9102 12.8424 52.6257 12.528 53.4824 12.3184C54.3392 12.0996 55.3327 11.9902 56.4629 11.9902H58.7461ZM71.3379 18.1973C71.821 18.1973 72.2493 18.1061 72.623 17.9238C72.9967 17.7324 73.2884 17.4681 73.498 17.1309C73.7168 16.7845 73.8307 16.3789 73.8398 15.9141H77.5449C77.5358 16.9531 77.2578 17.8783 76.7109 18.6895C76.1641 19.4915 75.4303 20.125 74.5098 20.5898C73.5892 21.0456 72.5592 21.2734 71.4199 21.2734C70.2715 21.2734 69.2689 21.082 68.4121 20.6992C67.5645 20.3164 66.8581 19.7878 66.293 19.1133C65.7279 18.4297 65.304 17.6367 65.0215 16.7344C64.7389 15.8229 64.5977 14.8477 64.5977 13.8086V13.4121C64.5977 12.3639 64.7389 11.3887 65.0215 10.4863C65.304 9.57487 65.7279 8.7819 66.293 8.10742C66.8581 7.42383 67.5645 6.89062 68.4121 6.50781C69.2598 6.125 70.2533 5.93359 71.3926 5.93359C72.6048 5.93359 73.6667 6.16602 74.5781 6.63086C75.4987 7.0957 76.2188 7.76107 76.7383 8.62695C77.2669 9.48372 77.5358 10.5 77.5449 11.6758H73.8398C73.8307 11.1836 73.7259 10.737 73.5254 10.3359C73.334 9.9349 73.0514 9.61589 72.6777 9.37891C72.3132 9.13281 71.862 9.00977 71.3242 9.00977C70.75 9.00977 70.2806 9.13281 69.916 9.37891C69.5514 9.61589 69.2689 9.94401 69.0684 10.3633C68.8678 10.7734 68.7266 11.2428 68.6445 11.7715C68.5716 12.291 68.5352 12.8379 68.5352 13.4121V13.8086C68.5352 14.3828 68.5716 14.9342 68.6445 15.4629C68.7174 15.9915 68.8542 16.4609 69.0547 16.8711C69.2643 17.2812 69.5514 17.6048 69.916 17.8418C70.2806 18.0788 70.7546 18.1973 71.3379 18.1973ZM87.0742 6.20703V8.99609H78.4609V6.20703H87.0742ZM80.5938 2.55664H84.5312V16.543C84.5312 16.9714 84.5859 17.2995 84.6953 17.5273C84.8138 17.7552 84.987 17.9147 85.2148 18.0059C85.4427 18.0879 85.7298 18.1289 86.0762 18.1289C86.3223 18.1289 86.541 18.1198 86.7324 18.1016C86.9329 18.0742 87.1016 18.0469 87.2383 18.0195L87.252 20.918C86.9147 21.0273 86.5501 21.1139 86.1582 21.1777C85.7663 21.2415 85.3333 21.2734 84.8594 21.2734C83.9935 21.2734 83.237 21.1322 82.5898 20.8496C81.9518 20.5579 81.4596 20.0931 81.1133 19.4551C80.7669 18.8171 80.5938 17.9785 80.5938 16.9395V2.55664ZM93.4727 6.20703V21H89.5215V6.20703H93.4727ZM89.2754 2.35156C89.2754 1.77734 89.4759 1.30339 89.877 0.929688C90.278 0.55599 90.8158 0.369141 91.4902 0.369141C92.1556 0.369141 92.6888 0.55599 93.0898 0.929688C93.5 1.30339 93.7051 1.77734 93.7051 2.35156C93.7051 2.92578 93.5 3.39974 93.0898 3.77344C92.6888 4.14714 92.1556 4.33398 91.4902 4.33398C90.8158 4.33398 90.278 4.14714 89.877 3.77344C89.4759 3.39974 89.2754 2.92578 89.2754 2.35156ZM96.0977 13.7539V13.4668C96.0977 12.3822 96.2526 11.3841 96.5625 10.4727C96.8724 9.55208 97.3236 8.75456 97.916 8.08008C98.5085 7.4056 99.2376 6.88151 100.104 6.50781C100.969 6.125 101.963 5.93359 103.084 5.93359C104.205 5.93359 105.203 6.125 106.078 6.50781C106.953 6.88151 107.687 7.4056 108.279 8.08008C108.881 8.75456 109.337 9.55208 109.646 10.4727C109.956 11.3841 110.111 12.3822 110.111 13.4668V13.7539C110.111 14.8294 109.956 15.8275 109.646 16.748C109.337 17.6595 108.881 18.457 108.279 19.1406C107.687 19.8151 106.958 20.3392 106.092 20.7129C105.226 21.0866 104.232 21.2734 103.111 21.2734C101.99 21.2734 100.992 21.0866 100.117 20.7129C99.2513 20.3392 98.5176 19.8151 97.916 19.1406C97.3236 18.457 96.8724 17.6595 96.5625 16.748C96.2526 15.8275 96.0977 14.8294 96.0977 13.7539ZM100.035 13.4668V13.7539C100.035 14.3737 100.09 14.9525 100.199 15.4902C100.309 16.028 100.482 16.502 100.719 16.9121C100.965 17.3132 101.284 17.6276 101.676 17.8555C102.068 18.0833 102.546 18.1973 103.111 18.1973C103.658 18.1973 104.128 18.0833 104.52 17.8555C104.911 17.6276 105.226 17.3132 105.463 16.9121C105.7 16.502 105.873 16.028 105.982 15.4902C106.101 14.9525 106.16 14.3737 106.16 13.7539V13.4668C106.16 12.8652 106.101 12.3001 105.982 11.7715C105.873 11.2337 105.695 10.7598 105.449 10.3496C105.212 9.93034 104.898 9.60221 104.506 9.36523C104.114 9.12826 103.64 9.00977 103.084 9.00977C102.528 9.00977 102.054 9.12826 101.662 9.36523C101.279 9.60221 100.965 9.93034 100.719 10.3496C100.482 10.7598 100.309 11.2337 100.199 11.7715C100.09 12.3001 100.035 12.8652 100.035 13.4668ZM116.387 9.36523V21H112.449V6.20703H116.141L116.387 9.36523ZM115.812 13.084H114.746C114.746 11.9902 114.887 11.0059 115.17 10.1309C115.452 9.24674 115.849 8.49479 116.359 7.875C116.87 7.24609 117.476 6.76758 118.178 6.43945C118.889 6.10221 119.682 5.93359 120.557 5.93359C121.249 5.93359 121.883 6.03385 122.457 6.23438C123.031 6.4349 123.523 6.75391 123.934 7.19141C124.353 7.62891 124.672 8.20768 124.891 8.92773C125.118 9.64779 125.232 10.5273 125.232 11.5664V21H121.268V11.5527C121.268 10.8965 121.176 10.3861 120.994 10.0215C120.812 9.6569 120.543 9.40169 120.188 9.25586C119.841 9.10091 119.413 9.02344 118.902 9.02344C118.374 9.02344 117.913 9.12826 117.521 9.33789C117.139 9.54753 116.82 9.83919 116.564 10.2129C116.318 10.5775 116.132 11.0059 116.004 11.498C115.876 11.9902 115.812 12.5189 115.812 13.084Z" fill="url(#paint0_linear_51_271)"/>
<defs>
<linearGradient id="paint0_linear_51_271" x1="22" y1="23" x2="97" y2="23" gradientUnits="userSpaceOnUse">
<stop offset="0.4124" stop-color="#F4821B"/>
<stop offset="0.438443" stop-color="#0C8569"/>
</linearGradient>
</defs>
</svg>
